<svg width="65" height="200" viewBox="0 0 65 198" fill="none" xmlns="http://www.w3.org/2000/svg">
  <path d="M39.861 171.286L12.935 184.695L29.0393 216.767L55.9653 203.358L39.861 171.286Z" fill="#F47D20"/>
  <path
    d="M34.8131 173.8L17.9884 182.179L15.6909 177.603C15.2922 176.809 15.617 175.844 16.417 175.446L30.353 168.505C31.1529 168.107 32.1233 168.427 32.522 169.221L34.8195 173.797L34.8131 173.8Z"
    fill="#F47D20"/>
  <g clip-path="url(#clip0_1_82)">
    <path
      d="M2.70767 7.65753L3.57137e-05 20.4338L5.27932 21.5526L6.93714 13.73L13.9762 15.2218L12.3184 23.0444L44.0007 29.7587L45.6585 21.9361L52.6976 23.4279L51.0397 31.2505L56.319 32.3693L59.0267 19.593C61.5241 7.80885 54.0922 -3.74723 42.4312 -6.21849L28.3465 -9.20342C16.6856 -11.6747 5.20506 -4.12667 2.70767 7.65753Z"
      fill="#06AE4D"/>
  </g>
  <defs>
    <clipPath id="clip0_1_82">
      <rect width="57.5698" height="41.3322" fill="white" transform="translate(8.56909 -20) rotate(11.9655)"/>
    </clipPath>
  </defs>
</svg>
